<svg width="59" height="56" viewBox="0 0 59 56" fill="none" xmlns="http://www.w3.org/2000/svg">
<path d="M52.5022 0.690918H6.30811V11.8431H23.8291V28.2347H34.9812V11.8431H52.5022V0.690918Z" fill="white"/>
<path d="M29.5113 29.9808C15.0174 29.9808 3.26665 27.6869 3.26665 24.8569C3.26665 22.0274 15.0169 19.7331 29.5113 19.7331C44.0051 19.7331 55.7554 22.0274 55.7554 24.8569C55.7554 27.6869 44.0051 29.9808 29.5113 29.9808ZM58.9795 25.7111C58.9795 22.0621 45.7863 19.1042 29.5113 19.1042C13.2367 19.1042 0.0424805 22.0621 0.0424805 25.7111C0.0424805 28.9246 10.2731 31.6019 23.8298 32.1951V55.7258H34.981V32.2044C48.6421 31.6297 58.9795 28.9412 58.9795 25.7111Z" fill="white"/>
</svg>
