<svg width="52" height="68" viewBox="0 0 52 68" fill="none" xmlns="http://www.w3.org/2000/svg">
<path d="M51.2642 27.0905C52.3168 20.0423 46.9489 16.2551 39.6033 13.7264L41.9828 4.17457L36.1718 2.72693L33.8558 12.0239C32.33 11.6438 30.7601 11.2832 29.2015 10.9299L31.5329 1.57128L25.7219 0.123645L23.3403 9.66628C22.0757 9.37745 20.8317 9.09374 19.6267 8.79356L19.6339 8.76478L11.6196 6.76389L10.0728 12.9728C10.0728 12.9728 14.3868 13.9602 14.2933 14.0199C16.6498 14.6069 17.0746 16.1626 17.0027 17.398L14.2923 28.2781C14.4568 28.319 14.6645 28.3795 14.8948 28.4718L14.282 28.3192L10.4807 43.5609C10.1935 44.2754 9.46354 45.3469 7.81751 44.9412C7.87514 45.0254 3.59394 43.889 3.59394 43.889L0.709217 50.542L8.27627 52.4271C9.68276 52.7775 11.0625 53.1474 12.4176 53.4937L10.0155 63.1535L15.8224 64.6002L18.203 55.0442C19.7864 55.4735 21.3255 55.8701 22.8348 56.2461L20.4614 65.7558L26.2724 67.2034L28.6734 57.5652C38.5841 59.4402 46.0451 58.683 49.1786 49.7164C51.7062 42.4984 49.0536 38.3309 43.8377 35.6166C47.6402 34.7472 50.5028 32.2505 51.2642 27.0905ZM37.9853 45.7139C36.1876 52.9302 24.0333 49.0333 20.0893 48.0508L23.2781 35.2505C27.22 36.2412 39.8599 38.1891 37.9853 45.7139ZM39.7772 26.9845C38.1413 33.5512 28.0186 30.2128 24.7358 29.3993L27.6265 17.7956C30.9124 18.6142 41.4868 20.1392 39.7772 26.9845Z" fill="white"/>
</svg>
